<?xml version="1.0" encoding="utf-8"?>
<!-- Generator: Adobe Illustrator 27.5.0, SVG Export Plug-In . SVG Version: 6.00 Build 0)  -->
<svg version="1.1" id="Capa_2" xmlns="http://www.w3.org/2000/svg" xmlns:xlink="http://www.w3.org/1999/xlink" x="0px" y="0px"
	 viewBox="0 0 2122 2122" style="enable-background:new 0 0 2122 2122;" xml:space="preserve">
<path style="fill:#F9B233;" d="M1345.163,1844.948c-2.08-3.333-5.16-5.535-8.674-6.2c-67.111-12.704-135.347-13.893-202.882-3.552
	c9.888-35.201,14.79-71.761,14.57-108.735l-0.019-3.162l-3.069,0.753c-8.775,2.151-16.529,2.646-23.939,2.183l-2.646-0.166
	l-0.005,2.65c-0.083,41.123-7.101,81.907-20.86,121.216c-1.637,4.682-0.726,9.503,2.504,13.225c3.101,3.576,7.934,5.676,12.69,5.676
	c1.003,0,2.007-0.095,2.987-0.287c69.708-13.744,143.401-14.039,213.113-0.846c8.441,1.605,16.104-2.816,18.212-10.501
	C1348.228,1853.253,1347.488,1848.673,1345.163,1844.948z"/>
<path style="fill:#F9B233;" d="M1579.183,297.32c-5.857-5.834-18.877-4.538-36.892-2.736c-18.804,1.873-42.204,4.205-67.498-0.058
	c-6.036-1.018-11.734-1.208-16.935-0.56l-3.442,0.426l1.5,3.128c6.936,14.475,10.454,32.219,10.454,52.743
	c0,7.033-2.843,14.672-8.448,22.706l-3.072,4.402l5.347-0.49c46.285-4.253,120.397-52.222,122.012-69.181
	C1582.635,303.235,1581.617,299.741,1579.183,297.32z"/>
<path style="fill:#D9E5E4;" d="M1544.017,1085.243l-0.998-0.296c-5.277-37.342-35.247-203.278-172.238-416.872
	c0,0-137.042-167.713-17.569-223.655c42.89-16.949,88.078-43.259,106.755-70.022c5.642-8.085,8.897-16.212,8.897-24.134
	c0-16.421-2.297-36.291-10.698-53.823c-18.231-38.049-65.268-65.066-180.372-21.756c-21.445,8.069-42.262,17.218-58.861,29.363
	l-0.005-0.006c0,0-134.326,64.904,5.248,369.766c73.995,161.623,78.577,264.898,63.56,328.482
	c-67.128-26.071-222.978-48.217-350.044,224.345c0,0-182.152-2.548-233.104,159.224c0,0-133.748-147.76-50.951,0
	c0,0-238.785-192.343-27.043,56.047c124.815,146.416,263.686,203.849,393.985,210.953c22.513,43.878,58.921,73.243,100.418,75.864
	c2.012,0.127,4.032,0.211,6.067,0.211c5.994,0,12.237-0.893,18.62-2.458c46.494-11.4,101.155-62.141,132.853-121.552
	C1457.047,1527.732,1559.137,1320.864,1544.017,1085.243z M1371.094,289.157c0.807-3.935,6.817-2.26,6.014,1.658
	c-1.241,6.056-2.656,12.463-1.544,18.655c0.932,5.194,3.553,10.336,8.667,12.461c4.797,1.992,9.502-0.112,12.57-4.008
	c3.582-4.548,4.506-10.689,5.492-16.22c0.297-1.667,2.327-2.592,3.836-2.178c1.729,0.475,2.474,2.18,2.178,3.835
	c-1.095,6.134-2.329,12.589-6.121,17.71c-3.169,4.28-7.62,7.407-13.028,7.862c-5.265,0.443-10.685-2.227-14.129-6.115
	C1366.737,313.456,1368.802,300.34,1371.094,289.157z M1351.556,1266.125c-14.834,72.703-58.166,139.198-118.688,182.128
	c-45.921,32.573-101.376,51.285-157.573,54.054c-6.956,10.838-15.08,20.858-24.752,29.704c-9.446,8.639-20.418,16.03-32.835,19.139
	c-12.417,3.108-26.446,1.45-36.522-6.444c-10.93-8.562-15.736-23.236-15.25-37.111c0.487-13.876,5.596-27.161,11.46-39.746
	c-9.099,13.177-18.761,26.86-32.971,34.241c-14.211,7.381-34.353,6.006-43.231-7.321c-4.779-7.174-5.472-16.441-3.898-24.917
	c4.818-25.946,27.726-44.027,49.011-59.626c-33.895,9.076-71.351,3.982-101.593-13.815c-14.364-8.453-28.29-22.267-27.105-38.891
	c1.431-20.085,23.386-31.695,42.939-36.506c30.182-7.426,62.021-7.859,92.445-1.539c29.638-83.427,84.445-157.916,155.963-210.192
	c22.391-16.366,46.59-30.739,73.061-39.018c26.471-8.277,55.448-10.173,81.904-1.848c37.713,11.869,67.111,43.945,81.261,80.863
	C1359.331,1186.2,1359.46,1227.386,1351.556,1266.125z"/>
<path style="fill:#E9F4F3;" d="M1346.345,1148.834c-15.223-39.717-45.898-70.227-82.049-81.603
	c-31.63-9.961-62.407-4.494-82.651,1.847c-23.6,7.379-46.933,19.834-73.427,39.198c-70.709,51.686-126.105,126.163-156.034,209.761
	c-30.422-6.16-62.205-5.549-91.934,1.764c-9.839,2.424-42.08,12.297-43.885,37.632c-1.467,20.565,18.894,34.862,27.715,40.056
	c28.826,16.962,63.827,22.514,96.531,15.403c-19.54,14.629-40.005,32.3-44.544,56.731c-1.844,9.939-0.392,19.116,4.088,25.839
	c9.486,14.232,30.662,15.104,44.845,7.734c10.916-5.669,19.221-15.001,26.443-24.767c-3.116,7.905-6.372,18.229-6.755,29.123
	c-0.553,15.732,5.328,29.988,15.727,38.139c6.748,5.284,15.759,8.195,25.376,8.195c4.061,0,8.17-0.514,12.217-1.528
	c11.238-2.811,22.154-9.167,33.377-19.425c9.203-8.419,17.257-18.044,24.611-29.413c56.4-2.904,112.355-22.163,157.593-54.249
	c60.835-43.152,104.277-109.815,119.188-182.898C1361.556,1223.358,1359.329,1182.715,1346.345,1148.834z M960.438,1403.277
	c0.607,3.191,1.296,6.808,1.715,10.36c0.219,1.871-1.315,2.2-1.791,2.256c-1.186,0.153-2.984-0.507-3.208-2.402
	c-0.327-2.765-0.806-5.484-1.233-7.778l-0.144-0.765l-0.714,0.307c-1.791,0.762-3.588,1.498-5.376,2.222
	c-1.752,0.706-2.473-0.692-2.653-1.135c-0.536-1.323-0.134-3.077,1.464-3.724c1.937-0.782,3.92-1.584,5.891-2.446l0.453-0.197
	l-0.09-0.488c-0.989-5.342-1.995-11.561-1.439-17.783c0.434-4.848,2.47-16.395,11.985-18.943c3.028-0.809,6.007-0.351,8.631,1.335
	c3.165,2.029,5.461,5.654,6.146,9.693c1.186,7.009-1.774,14.85-7.92,20.972c-2.909,2.899-6.526,5.391-11.386,7.842l-0.422,0.212
	L960.438,1403.277z M986.843,1438.288c-3.735-0.504-6.814-1.055-9.693-1.73c-1.077-0.253-1.491-0.923-1.647-1.442
	c-0.27-0.891,0.003-1.973,0.678-2.692c0.458-0.487,1.047-0.741,1.703-0.741l0.641,0.076c3.457,0.811,7.177,1.43,11.369,1.893
	l0.407,0.046l0.203-0.356c6.463-11.259,14.117-21.625,22.753-30.808c6.217-6.616,13.16-12.799,20.636-18.38
	c6.955-5.192,14.838-11.077,23.681-12.473c6.492-1.018,14.777,0.892,18.636,7.486c4.458,7.622,0.779,17.586-1.81,22.845
	c-8.938,18.146-29.242,27.593-40.551,31.608c-12.764,4.534-26.329,6.336-40.328,5.359l-0.4-0.029l-0.193,0.353
	c-3.179,5.839-5.717,11.091-7.761,16.053c-0.728,1.764-2.641,1.912-3.756,1.452c-0.438-0.181-1.818-0.906-1.104-2.639
	c2.039-4.957,4.397-9.995,7.009-14.974l0.412-0.789L986.843,1438.288z M1095.953,1248.612c-3.355-0.509-6.492-1.508-9.325-2.969
	c-7.603-3.924-12.032-9.388-13.157-16.241c-2.998-18.229,17.516-41.751,26.475-51.018c21.164-21.885,47.797-39.077,77.023-49.71
	c0.794-0.295,1.498-0.203,2.047,0.263c0.685,0.573,1.026,1.622,0.85,2.614c-0.095,0.541-0.438,1.515-1.669,1.961
	c-25.332,9.223-48.952,23.766-68.307,42.058c-10.56,9.981-34.792,35.089-31.734,52.636c1.043,5.985,5.147,10.582,12.2,13.666
	c2.276,0.994,4.755,1.627,7.581,1.934l0.465,0.051l0.18-0.431c4.051-9.82,10.631-19.233,19.555-27.978l1.074-1.062
	c4.21-4.175,9.447-9.369,15.269-9.378h0.015c4.112,0,7.754,2.943,9.065,7.325c4.151,13.876-17.873,27.978-22.329,30.665
	c-5.898,3.552-12.402,5.596-18.814,5.907l-0.422,0.022l-0.139,0.395c-4.789,13.645-4.102,26.843,1.981,38.168
	c11.754,21.873,38.633,27.942,59.099,22.636c0.801-0.209,1.588-0.453,2.375-0.699l0.967-0.297l-0.137-0.568
	c-3.454-14.511-0.144-29.576,8.858-40.297c6.85-8.164,19.169-14.921,30.025-10.424c4.134,1.705,6.808,4.548,7.947,8.443
	c1.571,5.367-0.085,12.658-4.219,18.57c-8.27,11.834-21.352,21.79-35.891,27.313l-0.589,0.224l0.231,0.587
	c6.483,16.487,24.346,28.117,44.453,28.94c21.089,0.831,42.835-11.16,56.777-31.389c12.921-18.743,18.867-43.636,17.673-73.995
	c-0.065-1.673,1.175-2.314,2.256-2.358c1.318,0.015,2.665,0.687,2.733,2.407c0.953,24.229-2.421,68.806-35.698,95.142
	c-21.489,17.009-56.08,22.719-80.616,0.709c-5.325-4.775-9.53-10.987-12.158-17.961l-0.205-0.541l-0.556,0.161
	c-10.962,3.215-21.995,3.764-31.89,1.593c-28.687-6.295-45.946-32.536-40.146-61.042c0.338-1.661,0.774-3.374,1.333-5.235
	l0.207-0.69L1095.953,1248.612z"/>
<path style="fill:#E9F4F3;" d="M971.094,1368.084c-3.715-2.124-7.944,0.506-10.041,4.056c-1.939,3.274-2.889,7.532-2.904,13.013
	c-0.01,4.119,0.587,8.243,1.172,11.732l0.144,0.865l0.77-0.419c4.677-2.56,8.185-5.408,10.726-8.702
	c2.845-3.69,5.221-9.941,4.256-14.75C974.699,1371.299,973.311,1369.348,971.094,1368.084z"/>
<path style="fill:#E9F4F3;" d="M1130.336,1211.516c-2.3,1.356-4.322,3.291-6.273,5.159l-0.923,0.88
	c-7.81,7.381-14.224,16.095-18.546,25.203l-0.506,1.064l1.164-0.18c6.57-1.018,13.306-4.197,19.479-9.194
	c5.172-4.18,10.89-9.094,13.26-14.492c1.308-2.976,0.755-6.467-1.313-8.299C1135.006,1210.174,1132.694,1210.118,1130.336,1211.516z
	"/>
<path style="fill:#E9F4F3;" d="M1065.732,1377.068c-8.383-2.753-16.855,2.862-22.47,6.57c-18.587,12.273-34.814,29.42-46.926,49.588
	l-0.543,0.904l1.052,0.041c1.269,0.048,2.534,0.07,3.796,0.07c11.559,0,22.813-2.02,33.508-6.022
	c10.025-3.752,28.029-12.483,35.985-28.806c1.148-2.356,4.692-10.524,2.083-16.685
	C1071.062,1380.003,1068.879,1378.098,1065.732,1377.068z"/>
<path style="fill:#E9F4F3;" d="M1209.027,1268.571c-0.587-2.964-2.801-5.113-6.582-6.393c-10.027-3.406-21.06,4.302-26.772,13.661
	c-5.116,8.385-7.079,19.009-5.384,29.147l0.256,1.184l0.148,0.643l0.156,0.726l0.689-0.28c8.005-3.259,15.608-8.007,22.594-14.112
	C1199.963,1288.057,1210.574,1276.366,1209.027,1268.571z"/>
<path style="fill:#D9E5E4;" d="M1057.474,1371.066c-8.923,1.407-16.889,7.313-23.956,12.589
	c-7.426,5.543-14.372,11.698-20.719,18.452c-8.837,9.402-16.45,19.799-22.838,30.927c-3.787-0.42-7.562-1.006-11.296-1.881
	c-3.903-0.914-5.57,5.097-1.657,6.013c3.222,0.755,6.481,1.297,9.752,1.741c-2.565,4.894-4.922,9.903-7.032,15.029
	c-1.527,3.708,4.505,5.324,6.014,1.658c2.253-5.474,4.897-10.785,7.732-15.993c13.707,0.957,27.558-0.769,40.583-5.392
	c16.214-5.757,33.046-15.966,40.902-31.921c3.43-6.966,6.005-16.226,1.789-23.433
	C1072.885,1372.255,1064.656,1369.933,1057.474,1371.066z M1069.573,1399.14c-6.831,14.015-21.483,23.198-35.643,28.496
	c-11.886,4.448-24.493,6.388-37.06,5.911c11.774-19.602,27.626-36.768,46.735-49.388c6.272-4.141,14.12-9.056,21.933-6.5
	C1075.223,1380.83,1073.087,1391.929,1069.573,1399.14z"/>
<path style="fill:#D9E5E4;" d="M980.689,1373.683c-1.251-7.381-7.74-13.616-15.552-11.524c-8.541,2.289-11.739,11.6-12.445,19.489
	c-0.541,6.048,0.348,12.011,1.446,17.953c-1.964,0.858-3.941,1.658-5.875,2.439c-3.673,1.484-2.068,7.52,1.658,6.014
	c1.79-0.723,3.593-1.462,5.387-2.226c0.479,2.577,0.921,5.154,1.225,7.736c0.463,3.938,6.705,3.985,6.236,0
	c-0.409-3.479-1.062-6.941-1.721-10.404c4.2-2.12,8.185-4.611,11.547-7.96C978.173,1389.647,982.047,1381.689,980.689,1373.683z
	 M959.933,1396.784c-0.645-3.854-1.17-7.719-1.16-11.628c0.011-4.292,0.591-8.94,2.814-12.701c1.791-3.029,5.659-5.848,9.198-3.83
	c7.063,4.029,3.451,14.733-0.32,19.624C967.653,1391.897,963.953,1394.583,959.933,1396.784z"/>
<path style="fill:#D9E5E4;" d="M1290.782,1236.559c1.002,25.532-2.763,52.146-17.564,73.618
	c-12.643,18.342-33.366,32.057-56.237,31.118c-18.573-0.762-37.089-11.221-43.901-28.545c14.54-5.523,27.661-15.347,36.181-27.538
	c6.265-8.965,8.157-22.929-4-27.948c-11.108-4.586-23.626,2.124-30.74,10.598c-9.609,11.445-12.32,26.844-8.986,40.844
	c-0.916,0.281-1.828,0.574-2.755,0.815c-21.567,5.592-47.357-1.784-58.394-22.327c-6.593-12.271-6.232-25.436-1.942-37.666
	c6.658-0.323,13.271-2.479,19.107-5.997c9.178-5.532,26.389-18.726,22.605-31.376c-1.299-4.342-4.971-7.778-9.677-7.77
	c-6.609,0.011-12.447,6.371-16.78,10.618c-8.188,8.025-15.304,17.542-19.694,28.185c-2.475-0.271-4.953-0.818-7.399-1.887
	c-31.271-13.669,6.434-52.729,19.711-65.277c19.546-18.472,42.836-32.73,68.094-41.923c3.742-1.361,2.126-7.391-1.658-6.013
	c-29.126,10.599-55.688,27.559-77.256,49.864c-15.183,15.702-44.24,52.206-13.155,68.245c3.067,1.583,6.271,2.541,9.518,3.034
	c-0.522,1.739-0.984,3.499-1.348,5.29c-5.93,29.143,11.733,55.437,40.623,61.776c10.49,2.302,21.6,1.506,32.199-1.602
	c2.592,6.875,6.727,13.185,12.328,18.208c23.214,20.823,57.969,17.875,81.42-0.686c28.821-22.812,37.312-60.534,35.934-95.656
	C1296.861,1232.56,1290.625,1232.539,1290.782,1236.559z M1176.206,1276.164c5.039-8.256,15.674-16.903,26.039-13.396
	c15.789,5.342-2.236,24.419-8.52,29.909c-6.638,5.799-14.229,10.67-22.422,14.004c-0.13-0.601-0.295-1.183-0.398-1.797
	C1169.272,1295.118,1171.029,1284.647,1176.206,1276.164z M1130.652,1212.052c5.518-3.264,8.904,2.787,6.767,7.654
	c-2.389,5.442-8.53,10.579-13.08,14.259c-5.578,4.51-12.241,7.985-19.183,9.063c4.487-9.457,11.108-18.118,18.411-25.019
	C1125.757,1215.94,1128.05,1213.589,1130.652,1212.052z"/>
<path style="fill:#7B6A58;" d="M1406.789,297.12c-1.491-0.412-3.208-0.136-4.585,0.733c-1.276,0.804-2.117,2.017-2.365,3.41
	l-0.161,0.911c-0.904,5.111-1.839,10.395-4.838,14.205c-1.006,1.281-4.69,5.315-9.652,3.247c-4.95-2.056-6.616-7.522-7.169-10.597
	c-0.984-5.483,0.222-11.347,1.389-17.016l0.144-0.699c0.719-3.505-1.769-6.197-4.589-6.775c-3.016-0.624-5.695,1.109-6.312,4.117
	c-2.473,12.071-4.365,25.791,4.514,35.815c3.896,4.397,9.476,7.004,14.843,7.004c0.455,0,0.911-0.019,1.362-0.058
	c5.681-0.477,10.945-3.625,14.823-8.865c4.251-5.742,5.537-12.957,6.57-18.753C1411.317,300.713,1409.646,297.905,1406.789,297.12z"
	/>
</svg>
