<?xml version="1.0" encoding="UTF-8"?>
<svg id="_Слой_1" data-name=" Слой 1" xmlns="http://www.w3.org/2000/svg" version="1.1" viewBox="0 0 400 400">
  <defs>
    <style>
      .cls-1 {
        fill: #ff2e34;
      }

      .cls-1, .cls-2 {
        stroke-width: 0px;
      }

      .cls-2 {
        fill: #feff8c;
      }
    </style>
  </defs>
  <path class="cls-1" d="M189.5,51l-39.6-8.3c-12.6-2.8-24.7,7.6-26.4,22.1-2.9,12.4-5.2,24.8-8,37.2,4,0,6.9,1.4,8,4.8,1.1,2.8,0,6.2-.6,7.6-2.9,6.2-8.6,7.6-9.8,8.3-2.9,17.9-6.3,36.6-8.6,55.2-5.2,36.6-9.2,71.7-12.1,104.8,0,2.1-1.7,11.7,4,20.7,3.4,5.5,8.6,10.3,14.9,11l39.6,8.3c2.3-15.2,14.3-24.8,26.4-22.1,12.6,2.8,20.7,17.2,18.4,31.7l39.6,8.3c12.6,2.8,24.7-7.6,26.4-22.1,1.1-26.2,4-54.5,7.5-84.8,3.4-27.6,8-53.1,12.6-76.6,0,0-4-4.1-3.4-10.3,0-4.8,2.9-9.7,7.5-11,2.9-11.7,5.2-22.8,8-34.5,2.3-15.2-6.3-29.7-18.4-31.7l-39.6-8.3c-2.3,15.2-14.3,24.8-26.4,22.1-12.6-2.8-20.7-17.2-18.4-31.7l-1.6-.7h0ZM266.4,144.1c-.6,5.5-5.2,9.7-9.8,8.3-4.6-1.4-8-6.2-6.9-11.7s5.2-9.7,9.8-8.3c4.6,1.4,8,6.2,6.9,11.7ZM238.2,138.6c-.6,5.5-5.2,9.7-9.8,8.3s-8-6.2-6.9-11.7,5.2-9.7,9.8-8.3,8.1,6.2,6.9,11.7ZM209.5,132.4c-.6,5.5-5.2,9.7-9.8,8.3s-8-6.2-6.9-11.7,5.2-9.7,9.8-8.3c4.6,1.4,8.1,6.2,6.9,11.7ZM181.4,126.2c-.6,5.5-5.2,9.7-9.8,8.3s-8-6.2-6.9-11.7,5.2-9.7,9.8-8.3c4.6,1.4,8.1,6.2,6.9,11.7ZM153.3,120.7c-.6,5.5-5.2,9.7-9.8,8.3-4.6-1.4-8-6.2-6.9-11.7s5.2-9.7,9.8-8.3,8.1,6.2,6.9,11.7Z"/>
  <polygon class="cls-2" points="181.4 193.8 198.1 157.9 202.1 197.9 235.9 204.8 204.4 222.8 208.4 263.4 185.4 233.8 154.5 251.7 170.5 215.9 147.6 186.2 181.4 193.8"/>
</svg>